<svg width="140" height="45" viewBox="0 0 140 45" fill="none" xmlns="http://www.w3.org/2000/svg">
<g clip-path="url(#clip0)">
<path d="M128.851 2.41797e-05H11.155C10.726 2.41797e-05 10.3021 2.41798e-05 9.87425 0.00227418C9.51607 0.00452418 9.16075 0.0110604 8.79913 0.0165617C8.01353 0.0254512 7.22978 0.09191 6.45469 0.21536C5.68068 0.341498 4.93092 0.579304 4.23077 0.920735C3.53147 1.26505 2.8925 1.71246 2.33704 2.24673C1.77867 2.77949 1.31322 3.39529 0.958592 4.07045C0.602988 4.74427 0.356412 5.46633 0.227378 6.21169C0.097118 6.95611 0.0270238 7.70911 0.0177246 8.46394C0.00686756 8.80886 0.00572102 9.15494 0 9.49991V35.5034C0.00572102 35.8528 0.00686756 36.1912 0.0177246 36.5406C0.0270266 37.2954 0.0971208 38.0483 0.227378 38.7927C0.356055 39.5385 0.602647 40.261 0.958592 40.9351C1.31306 41.608 1.77857 42.2213 2.33704 42.7511C2.89039 43.2878 3.52978 43.7355 4.23077 44.0772C4.93092 44.4195 5.68059 44.6588 6.45469 44.7868C7.22991 44.9093 8.01358 44.9758 8.79913 44.9857C9.16075 44.9934 9.51607 44.9978 9.87425 44.9978C10.3021 45 10.726 45 11.155 45H128.851C129.272 45 129.699 45 130.119 44.9978C130.476 44.9978 130.842 44.9934 131.198 44.9857C131.982 44.9763 132.764 44.9098 133.538 44.7868C134.315 44.6579 135.067 44.4187 135.77 44.0772C136.471 43.7353 137.11 43.2876 137.662 42.7511C138.219 42.2193 138.686 41.6064 139.045 40.9351C139.398 40.2605 139.642 39.5381 139.769 38.7927C139.9 38.0482 139.972 37.2954 139.986 36.5406C139.991 36.1912 139.991 35.8528 139.991 35.5034C140 35.0947 140 34.6883 140 34.2729V10.7282C140 10.3162 140 9.90749 139.991 9.49991C139.991 9.15494 139.991 8.80886 139.986 8.46389C139.972 7.709 139.9 6.95616 139.769 6.21164C139.642 5.46672 139.398 4.74472 139.045 4.07041C138.323 2.71712 137.178 1.61555 135.77 0.920634C135.067 0.580037 134.314 0.342295 133.538 0.215259C132.764 0.0912648 131.982 0.0247829 131.198 0.0164042C130.842 0.0109142 130.476 0.00432168 130.119 0.00212793C129.699 -0.00012207 129.272 -0.00012207 128.851 -0.00012207V2.41797e-05Z" fill="#A6A6A6"/>
<path d="M9.88007 44.0156C9.52361 44.0156 9.17577 44.0112 8.82211 44.0036C8.08947 43.9944 7.35854 43.9331 6.63532 43.8201C5.96096 43.7084 5.30768 43.5007 4.69703 43.2037C4.09199 42.9092 3.54014 42.5231 3.06262 42.06C2.5782 41.6025 2.17489 41.0718 1.86869 40.489C1.55911 39.9024 1.34486 39.2736 1.23341 38.6246C1.11305 37.9273 1.04793 37.2221 1.03861 36.5153C1.03119 36.278 1.02148 35.488 1.02148 35.488V9.49988C1.02148 9.49988 1.03183 8.72205 1.03867 8.49353C1.04759 7.78779 1.11233 7.08373 1.23233 6.38745C1.34399 5.73666 1.5584 5.10609 1.86815 4.51758C2.17323 3.93519 2.5743 3.40409 3.0558 2.94489C3.53677 2.48132 4.09038 2.09318 4.69646 1.79461C5.3057 1.49861 5.95774 1.29232 6.63075 1.18268C7.35634 1.06857 8.08981 1.00687 8.82498 0.998111L9.88065 0.984375H130.114L131.182 0.998663C131.911 1.00699 132.637 1.06813 133.356 1.18158C134.036 1.2926 134.695 1.50032 135.311 1.79791C136.525 2.39961 137.513 3.35156 138.137 4.52033C138.441 5.10477 138.653 5.7302 138.763 6.37536C138.884 7.07736 138.952 7.78696 138.966 8.49848C138.97 8.81708 138.97 9.1593 138.97 9.49988C138.979 9.92176 138.979 10.3233 138.979 10.7281V34.2729C138.979 34.6816 138.979 35.0804 138.97 35.4825C138.97 35.8484 138.969 36.1835 138.965 36.5284C138.951 37.2272 138.884 37.9242 138.765 38.6136C138.656 39.2673 138.443 39.901 138.133 40.4923C137.825 41.0688 137.424 41.5949 136.945 42.0513C136.467 42.5168 135.914 42.9052 135.308 43.2016C134.693 43.5008 134.035 43.7093 133.356 43.8201C132.633 43.9337 131.902 43.995 131.17 44.0036C130.827 44.0112 130.468 44.0156 130.12 44.0156L128.851 44.0179L9.88007 44.0156Z" fill="black"/>
<path d="M28.9783 22.8383C28.9908 21.8993 29.2502 20.9786 29.7323 20.1619C30.2143 19.3452 30.9034 18.659 31.7353 18.1672C31.2068 17.4414 30.5096 16.8441 29.699 16.4227C28.8884 16.0013 27.9869 15.7675 27.0659 15.7398C25.1013 15.5415 23.1966 16.8702 22.1955 16.8702C21.175 16.8702 19.6336 15.7595 17.9738 15.7923C16.9002 15.8257 15.8538 16.1259 14.9367 16.6637C14.0196 17.2015 13.2631 17.9586 12.7407 18.8612C10.4781 22.6282 12.1658 28.1643 14.3333 31.2093C15.4177 32.7003 16.685 34.3658 18.3434 34.3067C19.9662 34.242 20.5722 33.3117 22.5311 33.3117C24.4717 33.3117 25.0403 34.3067 26.7323 34.2692C28.4736 34.242 29.5708 32.7715 30.6171 31.2664C31.3963 30.204 31.9958 29.0298 32.3936 27.7873C31.3819 27.3759 30.5186 26.6872 29.9113 25.8071C29.3039 24.927 28.9794 23.8945 28.9783 22.8383Z" fill="white"/>
<path d="M25.7824 13.7372C26.7319 12.6413 27.1996 11.2326 27.0863 9.8103C25.6358 9.9568 24.2959 10.6234 23.3337 11.6774C22.8632 12.1922 22.5028 12.7912 22.2732 13.4401C22.0436 14.089 21.9493 14.775 21.9956 15.4589C22.7211 15.4661 23.4389 15.3149 24.0948 15.0167C24.7508 14.7185 25.3278 14.281 25.7824 13.7372Z" fill="white"/>
<path d="M49.4914 30.5321H43.9536L42.6237 34.3081H40.2781L45.5234 20.3379H47.9604L53.2057 34.3081H50.8201L49.4914 30.5321ZM44.5271 28.7897H48.9167L46.7528 22.6615H46.6922L44.5271 28.7897Z" fill="white"/>
<path d="M64.5338 29.2159C64.5338 32.3811 62.7721 34.4147 60.1134 34.4147C59.4399 34.4485 58.7701 34.2994 58.1807 33.9842C57.5913 33.6691 57.1061 33.2007 56.7807 32.6327H56.7304V37.6776H54.5562V24.1227H56.6607V25.8168H56.7007C57.0411 25.2515 57.5345 24.7855 58.1284 24.4684C58.7223 24.1514 59.3945 23.995 60.0734 24.0161C62.7617 24.0161 64.5338 26.0596 64.5338 29.2159ZM62.2991 29.2159C62.2991 27.1538 61.1908 25.7981 59.4999 25.7981C57.8386 25.7981 56.7213 27.1824 56.7213 29.2159C56.7213 31.2682 57.8386 32.6426 59.4999 32.6426C61.1908 32.6426 62.2991 31.2967 62.2991 29.2159Z" fill="white"/>
<path d="M76.192 29.216C76.192 32.3811 74.4303 34.4147 71.7716 34.4147C71.0981 34.4486 70.4283 34.2994 69.8389 33.9842C69.2495 33.6691 68.7643 33.2007 68.4389 32.6327H68.3886V37.6776H66.2144V24.1227H68.3189V25.8168H68.3589C68.6993 25.2515 69.1927 24.7855 69.7866 24.4685C70.3805 24.1514 71.0526 23.9951 71.7316 24.0161C74.42 24.0161 76.192 26.0596 76.192 29.216ZM73.9572 29.216C73.9572 27.1538 72.849 25.7981 71.1581 25.7981C69.4968 25.7981 68.3795 27.1824 68.3795 29.216C68.3795 31.2682 69.4968 32.6426 71.1581 32.6426C72.849 32.6426 73.9573 31.2968 73.9573 29.216H73.9572Z" fill="white"/>
<path d="M83.8973 30.4156C84.0584 31.801 85.458 32.7106 87.3706 32.7106C89.2032 32.7106 90.5216 31.801 90.5216 30.5518C90.5216 29.4675 89.7264 28.8182 87.8436 28.3732L85.9607 27.9371C83.2929 27.3175 82.0544 26.1177 82.0544 24.171C82.0544 21.7606 84.2389 20.1049 87.3409 20.1049C90.4108 20.1049 92.5153 21.7606 92.5862 24.171H90.3914C90.26 22.7768 89.0615 21.9352 87.31 21.9352C85.5585 21.9352 84.36 22.7867 84.36 24.0259C84.36 25.0136 85.1255 25.5948 86.9981 26.0397L88.5987 26.4176C91.5796 27.0955 92.8181 28.2469 92.8181 30.2903C92.8181 32.904 90.653 34.5409 87.2094 34.5409C83.9875 34.5409 81.8122 32.9424 81.6716 30.4155L83.8973 30.4156Z" fill="white"/>
<path d="M97.5105 21.7123V24.1227H99.5248V25.7783H97.5105V31.3934C97.5105 32.2657 97.9138 32.6722 98.7993 32.6722C99.0384 32.6682 99.2771 32.6521 99.5145 32.6239V34.2696C99.1164 34.3411 98.7118 34.3735 98.3068 34.3663C96.1623 34.3663 95.326 33.5918 95.326 31.6164V25.7783H93.7859V24.1227H95.326V21.7123H97.5105Z" fill="white"/>
<path d="M100.691 29.2159C100.691 26.0112 102.654 23.9974 105.715 23.9974C108.786 23.9974 110.74 26.0112 110.74 29.2159C110.74 32.4294 108.796 34.4344 105.715 34.4344C102.635 34.4344 100.691 32.4294 100.691 29.2159ZM108.524 29.2159C108.524 27.0176 107.477 25.7201 105.715 25.7201C103.953 25.7201 102.907 27.0275 102.907 29.2159C102.907 31.4231 103.953 32.7107 105.715 32.7107C107.477 32.7107 108.524 31.4231 108.524 29.2159H108.524Z" fill="white"/>
<path d="M112.532 24.1227H114.606V25.8563H114.656C114.797 25.3148 115.126 24.8363 115.59 24.5012C116.054 24.1661 116.624 23.9948 117.204 24.0161C117.455 24.0152 117.704 24.0414 117.949 24.0941V26.0497C117.633 25.9567 117.303 25.914 116.972 25.9233C116.656 25.911 116.341 25.9645 116.049 26.0803C115.757 26.196 115.494 26.3712 115.279 26.5939C115.063 26.8165 114.901 27.0813 114.802 27.37C114.703 27.6588 114.671 27.9647 114.706 28.2667V34.3081H112.532L112.532 24.1227Z" fill="white"/>
<path d="M127.973 31.3165C127.681 33.1655 125.808 34.4344 123.412 34.4344C120.331 34.4344 118.418 32.4492 118.418 29.2643C118.418 26.0695 120.341 23.9974 123.321 23.9974C126.252 23.9974 128.094 25.9332 128.094 29.0215V29.7378H120.613V29.8641C120.579 30.239 120.628 30.6166 120.756 30.9719C120.885 31.3272 121.091 31.6521 121.361 31.925C121.63 32.1979 121.957 32.4125 122.32 32.5546C122.682 32.6966 123.072 32.763 123.463 32.7491C123.976 32.7954 124.492 32.681 124.933 32.4229C125.374 32.1648 125.716 31.7767 125.909 31.3165L127.973 31.3165ZM120.624 28.2766H125.919C125.939 27.9396 125.885 27.6023 125.763 27.2859C125.641 26.9696 125.451 26.6809 125.207 26.4382C124.963 26.1955 124.67 26.0038 124.345 25.8754C124.021 25.7469 123.672 25.6843 123.321 25.6915C122.967 25.6895 122.616 25.7549 122.288 25.884C121.961 26.0131 121.663 26.2033 121.412 26.4436C121.161 26.684 120.963 26.9697 120.827 27.2843C120.692 27.5989 120.623 27.9362 120.624 28.2766V28.2766Z" fill="white"/>
<path d="M44.2544 9.82238C44.7103 9.79092 45.1677 9.85714 45.5937 10.0163C46.0197 10.1754 46.4036 10.4234 46.7178 10.7425C47.0321 11.0616 47.2687 11.4437 47.4108 11.8614C47.5528 12.2791 47.5967 12.7219 47.5392 13.1578C47.5392 15.3024 46.3338 16.5351 44.2544 16.5351H41.7329V9.82238H44.2544ZM42.8172 15.5858H44.1333C44.4591 15.6045 44.785 15.5531 45.0875 15.4354C45.39 15.3177 45.6613 15.1367 45.8819 14.9054C46.1024 14.6741 46.2665 14.3985 46.3623 14.0986C46.4581 13.7986 46.4831 13.4819 46.4355 13.1715C46.4796 12.8623 46.4521 12.5476 46.3548 12.2498C46.2576 11.9521 46.0931 11.6787 45.873 11.4493C45.653 11.2199 45.3829 11.0401 45.0822 10.9228C44.7814 10.8055 44.4574 10.7537 44.1333 10.771H42.8172V15.5858Z" fill="white"/>
<path d="M48.7639 13.9999C48.7308 13.667 48.7704 13.3311 48.8802 13.0138C48.99 12.6964 49.1676 12.4047 49.4015 12.1572C49.6354 11.9097 49.9205 11.712 50.2386 11.5767C50.5566 11.4414 50.9006 11.3715 51.2484 11.3715C51.5962 11.3715 51.9401 11.4414 52.2582 11.5767C52.5762 11.712 52.8613 11.9097 53.0953 12.1572C53.3292 12.4047 53.5067 12.6964 53.6165 13.0138C53.7263 13.3311 53.7659 13.667 53.7328 13.9999C53.7665 14.3331 53.7274 14.6695 53.6179 14.9873C53.5084 15.3052 53.331 15.5975 53.097 15.8454C52.863 16.0934 52.5777 16.2915 52.2593 16.4272C51.9409 16.5628 51.5966 16.6328 51.2484 16.6328C50.9002 16.6328 50.5558 16.5628 50.2374 16.4272C49.9191 16.2915 49.6337 16.0934 49.3997 15.8454C49.1658 15.5975 48.9883 15.3052 48.8788 14.9873C48.7693 14.6695 48.7302 14.3331 48.7639 13.9999ZM52.6634 13.9999C52.6634 12.9018 52.1504 12.2597 51.2501 12.2597C50.3463 12.2597 49.838 12.9018 49.838 13.9999C49.838 15.1068 50.3464 15.744 51.2501 15.744C52.1504 15.744 52.6634 15.1024 52.6634 13.9999H52.6634Z" fill="white"/>
<path d="M60.3377 16.535H59.2591L58.1703 12.804H58.0881L57.0038 16.535H55.9355L54.4834 11.4692H55.5379L56.4817 15.3347H56.5594L57.6425 11.4692H58.6399L59.723 15.3347H59.8053L60.7444 11.4692H61.7841L60.3377 16.535Z" fill="white"/>
<path d="M63.0056 11.4692H64.0065V12.2739H64.0842C64.216 11.9849 64.4383 11.7426 64.7201 11.5808C65.0019 11.419 65.3291 11.3458 65.6563 11.3714C65.9126 11.3529 66.17 11.39 66.4094 11.4802C66.6487 11.5703 66.8639 11.711 67.0391 11.892C67.2142 12.0729 67.3447 12.2894 67.421 12.5255C67.4973 12.7615 67.5174 13.011 67.4797 13.2556V16.5349H66.44V13.5066C66.44 12.6925 66.0722 12.2877 65.3032 12.2877C65.1292 12.2799 64.9555 12.3084 64.7939 12.3712C64.6324 12.434 64.4869 12.5296 64.3675 12.6516C64.248 12.7735 64.1573 12.9188 64.1017 13.0776C64.0461 13.2364 64.0269 13.4048 64.0453 13.5714V16.535H63.0056L63.0056 11.4692Z" fill="white"/>
<path d="M69.1362 9.49164H70.1759V16.535H69.1362V9.49164Z" fill="white"/>
<path d="M71.6213 13.9999C71.5882 13.667 71.6279 13.3311 71.7377 13.0137C71.8475 12.6964 72.0251 12.4046 72.259 12.1571C72.493 11.9096 72.7781 11.7119 73.0962 11.5766C73.4143 11.4413 73.7582 11.3714 74.106 11.3714C74.4538 11.3714 74.7978 11.4413 75.1159 11.5766C75.434 11.7119 75.7191 11.9096 75.9531 12.1571C76.187 12.4046 76.3646 12.6964 76.4744 13.0137C76.5842 13.3311 76.6238 13.667 76.5907 13.9999C76.6244 14.3332 76.5853 14.6695 76.4757 14.9873C76.3662 15.3052 76.1887 15.5975 75.9547 15.8454C75.7207 16.0934 75.4354 16.2915 75.117 16.4271C74.7986 16.5627 74.4543 16.6328 74.106 16.6328C73.7578 16.6328 73.4135 16.5627 73.0951 16.4271C72.7767 16.2915 72.4913 16.0934 72.2573 15.8454C72.0233 15.5975 71.8459 15.3052 71.7363 14.9873C71.6268 14.6695 71.5876 14.3332 71.6213 13.9999ZM75.5208 13.9999C75.5208 12.9018 75.0078 12.2597 74.1075 12.2597C73.2037 12.2597 72.6954 12.9018 72.6954 13.9999C72.6954 15.1068 73.2038 15.744 74.1075 15.744C75.0078 15.744 75.5208 15.1024 75.5208 13.9999H75.5208Z" fill="white"/>
<path d="M77.6851 15.1024C77.6851 14.1905 78.3911 13.6648 79.6445 13.5901L81.0715 13.511V13.0738C81.0715 12.5387 80.7036 12.2366 79.993 12.2366C79.4126 12.2366 79.0104 12.4415 78.895 12.7997H77.8884C77.9947 11.9295 78.8459 11.3714 80.0409 11.3714C81.3617 11.3714 82.1066 12.0037 82.1066 13.0738V16.535H81.1058V15.8231H81.0235C80.8565 16.0785 80.6221 16.2866 80.3441 16.4264C80.0661 16.5661 79.7545 16.6324 79.4411 16.6185C79.22 16.6406 78.9964 16.6179 78.785 16.5519C78.5735 16.4858 78.3787 16.3779 78.2133 16.2351C78.0478 16.0922 77.9153 15.9176 77.8244 15.7225C77.7334 15.5274 77.6859 15.3162 77.6851 15.1024ZM81.0715 14.6695V14.246L79.785 14.3251C79.0595 14.3718 78.7305 14.6091 78.7305 15.0557C78.7305 15.5116 79.1418 15.7769 79.7074 15.7769C79.8731 15.7931 80.0405 15.777 80.1996 15.7296C80.3587 15.6823 80.5063 15.6046 80.6336 15.5013C80.7608 15.398 80.8652 15.2711 80.9404 15.1282C81.0157 14.9853 81.0602 14.8293 81.0715 14.6695Z" fill="white"/>
<path d="M83.4731 13.9999C83.4731 12.3992 84.3289 11.3851 85.6599 11.3851C85.9892 11.3706 86.3159 11.4464 86.602 11.6038C86.8881 11.7612 87.1217 11.9936 87.2755 12.2739H87.3532V9.49164H88.3928V16.535H87.3966V15.7346H87.3143C87.1486 16.013 86.9069 16.2426 86.6153 16.3984C86.3237 16.5542 85.9933 16.6303 85.6599 16.6185C84.3198 16.6185 83.4731 15.6044 83.4731 13.9999ZM84.5472 13.9999C84.5472 15.0744 85.0739 15.7209 85.9547 15.7209C86.831 15.7209 87.3726 15.065 87.3726 14.0043C87.3726 12.9485 86.8253 12.2833 85.9547 12.2833C85.0795 12.2833 84.5471 12.9342 84.5471 13.9999H84.5472Z" fill="white"/>
<path d="M92.6946 13.9999C92.6615 13.667 92.7011 13.3311 92.8109 13.0138C92.9207 12.6964 93.0982 12.4047 93.3321 12.1572C93.5661 11.9097 93.8512 11.712 94.1692 11.5767C94.4873 11.4414 94.8312 11.3715 95.179 11.3715C95.5268 11.3715 95.8708 11.4414 96.1888 11.5767C96.5069 11.712 96.792 11.9097 97.0259 12.1572C97.2598 12.4047 97.4374 12.6964 97.5472 13.0138C97.657 13.3311 97.6966 13.667 97.6634 13.9999C97.6972 14.3331 97.6581 14.6695 97.5486 14.9873C97.4391 15.3052 97.2616 15.5975 97.0276 15.8454C96.7937 16.0934 96.5083 16.2915 96.1899 16.4272C95.8716 16.5628 95.5272 16.6328 95.179 16.6328C94.8308 16.6328 94.4865 16.5628 94.1681 16.4272C93.8497 16.2915 93.5644 16.0934 93.3304 15.8454C93.0964 15.5975 92.919 15.3052 92.8095 14.9873C92.7 14.6695 92.6609 14.3331 92.6946 13.9999ZM96.594 13.9999C96.594 12.9018 96.081 12.2597 95.1807 12.2597C94.277 12.2597 93.7686 12.9018 93.7686 13.9999C93.7686 15.1068 94.277 15.744 95.1807 15.744C96.081 15.744 96.594 15.1024 96.594 13.9999Z" fill="white"/>
<path d="M99.0583 11.4692H100.059V12.2739H100.137C100.269 11.9849 100.491 11.7426 100.773 11.5808C101.055 11.419 101.382 11.3458 101.709 11.3714C101.965 11.3529 102.223 11.39 102.462 11.4802C102.701 11.5703 102.917 11.711 103.092 11.892C103.267 12.0729 103.397 12.2894 103.474 12.5255C103.55 12.7615 103.57 13.011 103.532 13.2556V16.5349H102.493V13.5066C102.493 12.6925 102.125 12.2877 101.356 12.2877C101.182 12.2799 101.008 12.3084 100.847 12.3712C100.685 12.434 100.54 12.5296 100.42 12.6516C100.301 12.7735 100.21 12.9188 100.154 13.0776C100.099 13.2364 100.08 13.4048 100.098 13.5714V16.535H99.0583V11.4692Z" fill="white"/>
<path d="M109.407 10.2079V11.4922H110.549V12.3344H109.407V14.9392C109.407 15.4699 109.635 15.7022 110.152 15.7022C110.285 15.7018 110.417 15.6941 110.549 15.6791V16.5119C110.362 16.544 110.173 16.5611 109.983 16.563C108.827 16.563 108.367 16.1719 108.367 15.1952V12.3343H107.53V11.4922H108.367V10.2079H109.407Z" fill="white"/>
<path d="M111.969 9.49164H112.999V12.2833H113.082C113.22 11.9915 113.448 11.7479 113.736 11.5855C114.023 11.4231 114.356 11.3499 114.688 11.3758C114.943 11.3625 115.198 11.4034 115.434 11.4957C115.671 11.588 115.884 11.7294 116.057 11.9098C116.23 12.0901 116.36 12.3051 116.437 12.5392C116.514 12.7734 116.536 13.021 116.502 13.2643V16.535H115.461V13.511C115.461 12.7018 115.07 12.292 114.335 12.292C114.156 12.278 113.977 12.3016 113.808 12.3613C113.64 12.4209 113.487 12.5153 113.361 12.6376C113.235 12.7599 113.138 12.9073 113.077 13.0695C113.016 13.2316 112.993 13.4046 113.008 13.5763V16.535H111.969L111.969 9.49164Z" fill="white"/>
<path d="M122.564 15.1672C122.423 15.6302 122.117 16.0307 121.7 16.2986C121.283 16.5665 120.781 16.6848 120.282 16.6328C119.935 16.6416 119.59 16.5777 119.271 16.4454C118.952 16.3132 118.667 16.1159 118.435 15.8671C118.204 15.6183 118.031 15.3241 117.93 15.0048C117.829 14.6855 117.801 14.3488 117.848 14.018C117.802 13.6863 117.83 13.3489 117.932 13.0286C118.033 12.7083 118.204 12.4127 118.435 12.1618C118.665 11.9108 118.949 11.7104 119.267 11.574C119.584 11.4377 119.929 11.3686 120.277 11.3714C121.743 11.3714 122.627 12.3344 122.627 13.9252V14.274H118.907V14.33C118.891 14.516 118.915 14.7031 118.979 14.8794C119.042 15.0558 119.143 15.2174 119.275 15.3541C119.407 15.4907 119.567 15.5993 119.746 15.6729C119.924 15.7464 120.116 15.7834 120.31 15.7813C120.559 15.81 120.811 15.7669 121.034 15.6576C121.257 15.5482 121.442 15.3775 121.564 15.1672L122.564 15.1672ZM118.907 13.5346H121.568C121.581 13.3646 121.557 13.1938 121.498 13.0333C121.438 12.8727 121.344 12.7259 121.222 12.6023C121.1 12.4788 120.952 12.3811 120.788 12.3156C120.625 12.2502 120.449 12.2184 120.271 12.2223C120.092 12.2201 119.913 12.2526 119.747 12.3178C119.58 12.383 119.429 12.4796 119.302 12.6019C119.174 12.7242 119.074 12.8697 119.006 13.0299C118.939 13.1901 118.905 13.3617 118.907 13.5346H118.907Z" fill="white"/>
</g>
<defs>
<clipPath id="clip0">
<rect width="140" height="45" fill="white"/>
</clipPath>
</defs>
</svg>
