<svg width="200" height="437" viewBox="0 0 200 437" fill="none" xmlns="http://www.w3.org/2000/svg">
<rect x="25" width="50" height="10" rx="5" fill="white"/>
<rect y="16" width="100" height="10" rx="5" fill="white"/>
<rect x="25" y="32" width="50" height="10" rx="5" fill="white"/>
<rect x="125" y="81" width="50" height="10" rx="5" fill="white"/>
<rect x="100" y="97" width="100" height="10" rx="5" fill="white"/>
<rect x="125" y="113" width="50" height="10" rx="5" fill="white"/>
<rect x="25" y="314" width="50" height="10" rx="5" fill="white"/>
<rect y="330" width="100" height="10" rx="5" fill="white"/>
<rect x="25" y="346" width="50" height="10" rx="5" fill="white"/>
<rect x="125" y="395" width="50" height="10" rx="5" fill="white"/>
<rect x="100" y="411" width="100" height="10" rx="5" fill="white"/>
<rect x="125" y="427" width="50" height="10" rx="5" fill="white"/>
<rect x="125" y="238" width="50" height="10" rx="5" fill="white"/>
<rect x="100" y="254" width="100" height="10" rx="5" fill="white"/>
<rect x="125" y="270" width="50" height="10" rx="5" fill="white"/>
<rect x="25" y="157" width="50" height="10" rx="5" fill="white"/>
<rect y="173" width="100" height="10" rx="5" fill="white"/>
<rect x="25" y="189" width="50" height="10" rx="5" fill="white"/>
</svg>
